<svg xmlns="http://www.w3.org/2000/svg" xmlns:xlink="http://www.w3.org/1999/xlink" width="150" zoomAndPan="magnify" viewBox="0 0 112.5 37.5" height="50" preserveAspectRatio="xMidYMid meet" version="1.0"><defs><g/></defs><g fill="#22c55e" fill-opacity="1"><g transform="translate(2.566869, 27.506578)"><g><path d="M 9.703125 -12.96875 C 11.515625 -12.96875 12.972656 -12.359375 14.078125 -11.140625 C 15.179688 -9.929688 15.734375 -8.335938 15.734375 -6.359375 C 15.734375 -4.398438 15.191406 -2.828125 14.109375 -1.640625 C 13.035156 -0.453125 11.597656 0.140625 9.796875 0.140625 C 8.117188 0.140625 6.8125 -0.476562 5.875 -1.71875 L 5.875 4.609375 L 1.765625 4.609375 L 1.765625 -12.828125 L 5.875 -12.828125 L 5.875 -11.140625 C 6.832031 -12.359375 8.109375 -12.96875 9.703125 -12.96875 Z M 8.703125 -3.125 C 9.566406 -3.125 10.265625 -3.4375 10.796875 -4.0625 C 11.328125 -4.6875 11.59375 -5.488281 11.59375 -6.46875 C 11.59375 -7.457031 11.328125 -8.257812 10.796875 -8.875 C 10.265625 -9.488281 9.566406 -9.796875 8.703125 -9.796875 C 7.878906 -9.796875 7.203125 -9.488281 6.671875 -8.875 C 6.140625 -8.257812 5.875 -7.457031 5.875 -6.46875 C 5.875 -5.46875 6.132812 -4.660156 6.65625 -4.046875 C 7.1875 -3.429688 7.867188 -3.125 8.703125 -3.125 Z M 8.703125 -3.125 "/></g></g></g><g fill="#22c55e" fill-opacity="1"><g transform="translate(18.86269, 27.506578)"><g><path d="M 10.1875 -13.015625 C 11.59375 -13.015625 12.722656 -12.566406 13.578125 -11.671875 C 14.441406 -10.773438 14.875 -9.582031 14.875 -8.09375 L 14.875 0 L 10.75 0 L 10.75 -6.953125 C 10.75 -7.691406 10.546875 -8.28125 10.140625 -8.71875 C 9.742188 -9.15625 9.195312 -9.375 8.5 -9.375 C 7.707031 -9.375 7.070312 -9.085938 6.59375 -8.515625 C 6.113281 -7.941406 5.875 -7.210938 5.875 -6.328125 L 5.875 0 L 1.765625 0 L 1.765625 -17.65625 L 5.875 -17.65625 L 5.875 -10.703125 C 6.78125 -12.210938 8.21875 -12.984375 10.1875 -13.015625 Z M 10.1875 -13.015625 "/></g></g></g><g fill="#22c55e" fill-opacity="1"><g transform="translate(34.991985, 27.506578)"><g><path d="M 7.59375 -12.96875 C 9.6875 -12.96875 11.375 -12.367188 12.65625 -11.171875 C 13.945312 -9.972656 14.59375 -8.390625 14.59375 -6.421875 C 14.59375 -4.453125 13.945312 -2.863281 12.65625 -1.65625 C 11.375 -0.457031 9.6875 0.140625 7.59375 0.140625 C 5.476562 0.140625 3.78125 -0.457031 2.5 -1.65625 C 1.21875 -2.863281 0.578125 -4.453125 0.578125 -6.421875 C 0.578125 -8.390625 1.21875 -9.972656 2.5 -11.171875 C 3.78125 -12.367188 5.476562 -12.96875 7.59375 -12.96875 Z M 7.59375 -9.703125 C 6.738281 -9.703125 6.046875 -9.394531 5.515625 -8.78125 C 4.984375 -8.164062 4.71875 -7.363281 4.71875 -6.375 C 4.71875 -5.375 4.984375 -4.566406 5.515625 -3.953125 C 6.046875 -3.347656 6.738281 -3.046875 7.59375 -3.046875 C 8.4375 -3.046875 9.125 -3.347656 9.65625 -3.953125 C 10.1875 -4.566406 10.453125 -5.375 10.453125 -6.375 C 10.453125 -7.363281 10.1875 -8.164062 9.65625 -8.78125 C 9.125 -9.394531 8.4375 -9.703125 7.59375 -9.703125 Z M 7.59375 -9.703125 "/></g></g></g><g fill="#22c55e" fill-opacity="1"><g transform="translate(50.145915, 27.506578)"><g><path d="M 6.234375 -13.015625 C 8.117188 -13.015625 9.878906 -12.53125 11.515625 -11.5625 L 10.109375 -8.90625 C 8.523438 -9.757812 7.175781 -10.1875 6.0625 -10.1875 C 5.226562 -10.1875 4.8125 -9.890625 4.8125 -9.296875 C 4.8125 -8.984375 5.039062 -8.71875 5.5 -8.5 C 5.957031 -8.289062 6.519531 -8.097656 7.1875 -7.921875 C 7.851562 -7.742188 8.515625 -7.523438 9.171875 -7.265625 C 9.828125 -7.003906 10.382812 -6.585938 10.84375 -6.015625 C 11.3125 -5.441406 11.546875 -4.742188 11.546875 -3.921875 C 11.546875 -2.640625 11.046875 -1.632812 10.046875 -0.90625 C 9.046875 -0.1875 7.742188 0.171875 6.140625 0.171875 C 3.867188 0.171875 1.945312 -0.429688 0.375 -1.640625 L 1.6875 -4.265625 C 3.195312 -3.203125 4.710938 -2.671875 6.234375 -2.671875 C 7.171875 -2.671875 7.640625 -2.960938 7.640625 -3.546875 C 7.640625 -3.878906 7.410156 -4.15625 6.953125 -4.375 C 6.503906 -4.601562 5.953125 -4.800781 5.296875 -4.96875 C 4.648438 -5.144531 4 -5.363281 3.34375 -5.625 C 2.695312 -5.882812 2.144531 -6.289062 1.6875 -6.84375 C 1.238281 -7.40625 1.015625 -8.109375 1.015625 -8.953125 C 1.015625 -10.234375 1.5 -11.226562 2.46875 -11.9375 C 3.4375 -12.65625 4.691406 -13.015625 6.234375 -13.015625 Z M 6.234375 -13.015625 "/></g></g></g><g fill="#22c55e" fill-opacity="1"><g transform="translate(62.349937, 27.506578)"><g><path d="M 9.703125 -12.96875 C 11.515625 -12.96875 12.972656 -12.359375 14.078125 -11.140625 C 15.179688 -9.929688 15.734375 -8.335938 15.734375 -6.359375 C 15.734375 -4.398438 15.191406 -2.828125 14.109375 -1.640625 C 13.035156 -0.453125 11.597656 0.140625 9.796875 0.140625 C 8.117188 0.140625 6.8125 -0.476562 5.875 -1.71875 L 5.875 4.609375 L 1.765625 4.609375 L 1.765625 -12.828125 L 5.875 -12.828125 L 5.875 -11.140625 C 6.832031 -12.359375 8.109375 -12.96875 9.703125 -12.96875 Z M 8.703125 -3.125 C 9.566406 -3.125 10.265625 -3.4375 10.796875 -4.0625 C 11.328125 -4.6875 11.59375 -5.488281 11.59375 -6.46875 C 11.59375 -7.457031 11.328125 -8.257812 10.796875 -8.875 C 10.265625 -9.488281 9.566406 -9.796875 8.703125 -9.796875 C 7.878906 -9.796875 7.203125 -9.488281 6.671875 -8.875 C 6.140625 -8.257812 5.875 -7.457031 5.875 -6.46875 C 5.875 -5.46875 6.132812 -4.660156 6.65625 -4.046875 C 7.1875 -3.429688 7.867188 -3.125 8.703125 -3.125 Z M 8.703125 -3.125 "/></g></g></g><g fill="#22c55e" fill-opacity="1"><g transform="translate(78.645758, 27.506578)"><g><path d="M 10.1875 -13.015625 C 11.59375 -13.015625 12.722656 -12.566406 13.578125 -11.671875 C 14.441406 -10.773438 14.875 -9.582031 14.875 -8.09375 L 14.875 0 L 10.75 0 L 10.75 -6.953125 C 10.75 -7.691406 10.546875 -8.28125 10.140625 -8.71875 C 9.742188 -9.15625 9.195312 -9.375 8.5 -9.375 C 7.707031 -9.375 7.070312 -9.085938 6.59375 -8.515625 C 6.113281 -7.941406 5.875 -7.210938 5.875 -6.328125 L 5.875 0 L 1.765625 0 L 1.765625 -17.65625 L 5.875 -17.65625 L 5.875 -10.703125 C 6.78125 -12.210938 8.21875 -12.984375 10.1875 -13.015625 Z M 10.1875 -13.015625 "/></g></g></g><g fill="#22c55e" fill-opacity="1"><g transform="translate(94.775053, 27.506578)"><g><path d="M 7.59375 -12.96875 C 9.6875 -12.96875 11.375 -12.367188 12.65625 -11.171875 C 13.945312 -9.972656 14.59375 -8.390625 14.59375 -6.421875 C 14.59375 -4.453125 13.945312 -2.863281 12.65625 -1.65625 C 11.375 -0.457031 9.6875 0.140625 7.59375 0.140625 C 5.476562 0.140625 3.78125 -0.457031 2.5 -1.65625 C 1.21875 -2.863281 0.578125 -4.453125 0.578125 -6.421875 C 0.578125 -8.390625 1.21875 -9.972656 2.5 -11.171875 C 3.78125 -12.367188 5.476562 -12.96875 7.59375 -12.96875 Z M 7.59375 -9.703125 C 6.738281 -9.703125 6.046875 -9.394531 5.515625 -8.78125 C 4.984375 -8.164062 4.71875 -7.363281 4.71875 -6.375 C 4.71875 -5.375 4.984375 -4.566406 5.515625 -3.953125 C 6.046875 -3.347656 6.738281 -3.046875 7.59375 -3.046875 C 8.4375 -3.046875 9.125 -3.347656 9.65625 -3.953125 C 10.1875 -4.566406 10.453125 -5.375 10.453125 -6.375 C 10.453125 -7.363281 10.1875 -8.164062 9.65625 -8.78125 C 9.125 -9.394531 8.4375 -9.703125 7.59375 -9.703125 Z M 7.59375 -9.703125 "/></g></g></g></svg>